name Walk1.mot
datacolumns 19
datarows 10
range 2.00500000 2.05000000
endheader

                time	   L_ground_force_vx	   L_ground_force_vy	   L_ground_force_vz	   L_ground_force_px	   L_ground_force_py	   L_ground_force_pz	   R_ground_force_vx	   R_ground_force_vy	   R_ground_force_vz	   R_ground_force_px	   R_ground_force_py	   R_ground_force_pz	   L_ground_torque_x	   L_ground_torque_y	   L_ground_torque_z	   R_ground_torque_x	   R_ground_torque_y	   R_ground_torque_z	
          2.00500000	          0.02956221	          0.08745934	         -0.00077688	         -0.00012216	          0.00000000	         -0.00004838	        -35.22013837	        542.03901573	        -31.31346581	          0.38873219	          0.00000000	          0.09536488	          0.00000000	         -0.00008097	          0.00000000	          0.00000000	         -0.03202513	          0.00000000	
          2.01000000	          0.01945738	          0.05670559	         -0.00061909	         -0.00010292	          0.00000000	         -0.00004142	        -33.73006196	        538.33213513	        -32.07992230	          0.39119270	          0.00000000	          0.09501524	          0.00000000	         -0.00005320	          0.00000000	          0.00000000	         -0.00926806	          0.00000000	
          2.01500000	          0.01143850	          0.03249908	         -0.00046894	         -0.00008244	          0.00000000	         -0.00003369	        -32.18521436	        534.78029899	        -32.97739640	          0.39370080	          0.00000000	          0.09467002	          0.00000000	         -0.00003119	          0.00000000	          0.00000000	          0.03158170	          0.00000000	
          2.02000000	          0.00539150	          0.01440562	         -0.00033557	         -0.00006278	          0.00000000	         -0.00002606	        -30.56544986	        531.54985128	        -33.96587125	          0.39623796	          0.00000000	          0.09432563	          0.00000000	         -0.00001460	          0.00000000	          0.00000000	          0.09266486	          0.00000000	
          2.02500000	          0.00108727	          0.00166333	         -0.00022350	         -0.00004521	          0.00000000	         -0.00001911	        -28.85888560	        528.80165227	        -35.00137963	          0.39879172	          0.00000000	          0.09397805	          0.00000000	         -0.00000281	          0.00000000	          0.00000000	          0.17573695	          0.00000000	
          2.03000000	         -0.00175893	         -0.00663960	         -0.00013395	         -0.00003037	          0.00000000	         -0.00001314	        -27.06366144	        526.67984549	        -36.03671179	          0.40135347	          0.00000000	          0.09362175	          0.00000000	          0.00000497	          0.00000000	          0.00000000	          0.28201841	          0.00000000	
          2.03500000	         -0.00344504	         -0.01143900	         -0.00006593	         -0.00001845	          0.00000000	         -0.00000827	        -25.18886862	        525.30790333	        -37.02520734	          0.40391727	          0.00000000	          0.09325084	          0.00000000	          0.00000957	          0.00000000	          0.00000000	          0.41190671	          0.00000000	
          2.04000000	         -0.00425385	         -0.01361207	         -0.00001710	         -0.00000935	          0.00000000	         -0.00000450	        -23.25424028	        524.78877082	        -37.92605626	          0.40648216	          0.00000000	          0.09286017	          0.00000000	          0.00001176	          0.00000000	          0.00000000	          0.56497682	          0.00000000	
          2.04500000	         -0.00443609	         -0.01392907	          0.00001557	         -0.00000277	          0.00000000	         -0.00000172	        -21.28935640	        525.20520874	        -38.70817176	          0.40905384	          0.00000000	          0.09244506	          0.00000000	          0.00001224	          0.00000000	          0.00000000	          0.74004005	          0.00000000	
          2.05000000	         -0.00420212	         -0.01303074	          0.00003528	          0.00000167	          0.00000000	          0.00000020	        -19.33255445	        526.62043160	        -39.35169299	          0.41164315	          0.00000000	          0.09200160	          0.00000000	          0.00001157	          0.00000000	          0.00000000	          0.93469081	          0.00000000	
